# xmcd
#
# Track frame offsets:
#	150
#	24362
#	44012
#	60062
#	75287
#	91487
#	107012
#	125125
#	143197
#	161762
#	179537
#	198587
# Disc length: 2879 seconds
# Revision: 1
# Processed by: cddbd v1.5.1PL2 Copyright (c) Steve Scherf et al.
#
# Submitted via: libkcddb 0.31
#
DISCID=9e0b3d0c
DTITLE=Joanna Connor - Joanna Connor Band
DYEAR=1992
DGENRE=Blues
TTITLE0=Texas
TTITLE1=Walkin' Blues
TTITLE2=Child From Two Worlds
TTITLE3=No Good For Me
TTITLE4=Heaven
TTITLE5=Lost
TTITLE6=Read My Lips
TTITLE7=Your Love Was Never Mine
TTITLE8=I Got Love
TTITLE9=Fight
TTITLE10=Living On The Road
TTITLE11=Walk Away
EXTD=
EXTT0=
EXTT1=
EXTT2=
EXTT3=
EXTT4=
EXTT5=
EXTT6=
EXTT7=
EXTT8=
EXTT9=
EXTT10=
EXTT11=
PLAYORDER=
